<?xml version="1.0" standalone="no"?><!DOCTYPE svg PUBLIC "-//W3C//DTD SVG 1.1//EN" "http://www.w3.org/Graphics/SVG/1.1/DTD/svg11.dtd"><svg t="1665199930075" class="icon" viewBox="0 0 1024 1024" version="1.1" xmlns="http://www.w3.org/2000/svg" p-id="2375" xmlns:xlink="http://www.w3.org/1999/xlink" width="200" height="200"><path d="M467.016064 158.537234l-89.773872 32.673953 83.191882 186.623734 67.515903-24.573965z" fill="#54B88B" p-id="2376"></path><path d="M377.242192 191.211187l45.965935 103.115853a106.971847 106.971847 0 0 0 12.513982-15.041978c9.473986-13.82798 26.961962-20.191971 43.107938-15.689978a107.305847 107.305847 0 0 0 22.219969 3.699995l-34.033952-108.757845-89.773872 32.673953z" opacity=".1" p-id="2377"></path><path d="M729.60169 1019.646006c141.111799-51.359927 6.70399-484.879309-23.997966-577.847176-30.699956-92.967867-115.681835-142.459797-223.843681-103.091853s-141.449798 131.905812-105.20785 222.857682 211.937698 509.443274 353.049497 458.081347z" fill="#FC9F65" p-id="2378"></path><path d="M494.348025 37.411407c-9.247987 1.079998-18.461974-1.889997-25.195964-8.317988-27.94196-26.671962-69.601901-36.847947-108.359845-22.739968-38.757945 14.10598-64.129909 48.679931-68.391903 87.073876-1.027999 9.253987-6.175991 17.451975-13.95398 22.567968-38.609945 25.393964-57.169918 71.361898-42.17794 112.553839 17.843975 49.02393 76.443891 72.701896 130.887814 52.885925 23.147967-8.423988 41.80394-23.357967 54.239922-41.509941 9.473986-13.82798 26.961962-20.191971 43.105939-15.689978 21.19397 5.909992 45.083936 5.357992 68.231902-3.067995 54.443922-19.815972 84.11588-75.621892 66.271906-124.645823-14.991979-41.191941-58.757916-64.475908-104.657851-59.109915z" fill="#54B88B" p-id="2379"></path><path d="M566.637922 390.236904c1.701998 0 3.435995-0.292 5.127993-0.907999l80.539885-29.311958a146.98379 146.98379 0 0 0-31.687955-20.393971l-59.113916 21.513969a14.999979 14.999979 0 0 0 5.133993 29.099959z m130.337814 363.253482a14.999979 14.999979 0 0 0 19.225973 8.963987l64.643908-23.527967c-1.629998-9.999986-3.385995-20.017971-5.247993-30.015957l-69.657901 25.351964a15.003979 15.003979 0 0 0-8.963987 19.227973zM447.042093 477.588779l42.01194-15.289978a14.999979 14.999979 0 1 0-10.261986-28.18996l-42.01194 15.289978a14.999979 14.999979 0 0 0 10.261986 28.18996zM600.199874 870.452219l-56.405919 20.531971a774.544896 774.544896 0 0 0 17.987974 25.379963l48.679931-17.717974a15.003979 15.003979 0 0 0-10.261986-28.19396z m112.55984 34.419951l-44.033937 16.025977a14.999979 14.999979 0 0 0 10.261985 28.18996l44.033937-16.025977a15.001979 15.001979 0 0 0-10.261985-28.18996z m-14.727979-236.197663a14.999979 14.999979 0 0 0-19.225973-8.963988l-48.80993 17.765975a15.001979 15.001979 0 0 0 5.131992 29.097959c1.703998 0 3.435995-0.294 5.127993-0.907999l48.809931-17.765975a14.999979 14.999979 0 0 0 8.965987-19.225972z m-176.877748 9.843986l-80.279886 29.219958c4.281994 8.891987 8.715988 17.939974 13.287981 27.089961l77.25389-28.11796a14.999979 14.999979 0 0 0 8.963988-19.225972 15.003979 15.003979 0 0 0-19.225973-8.965987z" opacity=".1" p-id="2380"></path><path d="M470.582059 582.830629a15.007979 15.007979 0 0 1-14.09798-9.871986l-5.045993-13.86198a15.001979 15.001979 0 0 1 28.18996-10.261986l5.045993 13.861981a14.999979 14.999979 0 0 1-14.09198 20.133971zM637.599821 522.040716a15.009979 15.009979 0 0 1-14.09798-9.875986l-5.043993-13.86398a14.999979 14.999979 0 0 1 28.18996-10.257986l5.045993 13.86398a14.999979 14.999979 0 0 1-8.965987 19.223973 14.935979 14.935979 0 0 1-5.127993 0.909999zM547.35395 564.948655c-7.715989 0-15.399978-1.939997-22.313969-5.761992a14.999979 14.999979 0 0 1 14.51398-26.253963c4.075994 2.251997 8.913987 2.635996 13.277981 1.047999s7.825989-4.991993 9.501986-9.339987a14.995979 14.995979 0 0 1 19.387973-8.603988 14.999979 14.999979 0 0 1 8.603987 19.387973 46.059934 46.059934 0 0 1-42.971938 29.523958z" fill="#414B58" p-id="2381"></path><path d="M442.418099 357.248951c-76.433891 45.573935-97.261861 125.527821-65.865906 204.317708 36.239948 90.95187 211.937698 509.441274 353.049497 458.081347 10.279985-3.741995 19.087973-9.523986 26.589962-17.043975-187.137733-115.767835-411.149414-516.343264-313.773553-645.35508zM331.240258 109.295304c-16.179977-27.519961-7.553989-71.239898 16.603976-97.213861-31.225955 16.373977-51.435927 47.039933-55.375921 80.733885-1.103998 9.447987-6.261991 18.051974-14.19998 23.293966-38.489945 25.417964-56.971919 71.307898-42.00194 112.43784 17.843975 49.02393 76.443891 72.701896 130.887814 52.885925 21.947969-7.987989 39.849943-21.833969 52.247925-38.721945-95.063864 29.851957-122.679825-62.97391-89.763872-105.30185 6.283991-8.075988 6.78799-19.293972 1.601998-28.11396z" opacity=".1" p-id="2382"></path></svg>